# xmcd
#
# Track frame offsets:
#	150
#	14772
#	31503
#	43658
#	55203
#	68887
#	82100
#	93538
#	114475
#	131872
#	146879
#	152695
#	169600
#	186786
#	199428
#	211368
#	222195
#	235186
#	246254
#	259226
#	269450
#	287217
#	298837
#	316580
#
# Disc length: 4398 seconds
#
# Revision: 0
# Processed by: cddbd v1.5.2PL0 Copyright (c) Steve Scherf et al.
# Submitted via: EasyCDDAExtractor 16.0.8.2
#
DISCID=78112c18
DTITLE=Συλλογικός δίσκος - Αφιέρωμα στον Στρ. Διονυσίου 1
DYEAR=2010
DGENRE=Λαϊκή
TTITLE0=Διονυσίου Στράτος - Άνθρωπος είσαι και λυγάς [Τ. Μουσαφίρης]
TTITLE1=Διονυσίου Στράτος - Και του λιμανιού και του σαλονιού [Τ. Μουσαφίρης]
TTITLE2=Διονυσίου Στράτος - Κύριος ήρθα, κύριος φεύγω [Τ. Μουσαφίρης]
TTITLE3=Διονυσίου Στράτος - Λέγε με παλιόπαιδο [Τ. Μουσαφίρης]
TTITLE4=Διονυσίου Στράτος - Εγώ να δεις [Τ. Μουσαφίρης-ιδίου κ Καίτης Μπόνη]
TTITLE5=Διονυσίου Στράτος - Ζητώ ακρόαση Θεού [Χρ. Νικολόπουλος-Λ. Παπαδόπουλο
TTITLE5=ς]
TTITLE6=Διονυσίου Στράτος - Της γυναίκας η καρδιά [Αλέκος Χρυσοβέργης-Σπ. Γιατ
TTITLE6=ράς]
TTITLE7=Διονυσίου Στράτος - Τα πήρες όλα [Θαν. Πολυκανδριώτης]
TTITLE8=Διονυσίου Στράτος - Καϋμό μέσ' στην καρδούλα μου [Κώστας Καρβέλης]
TTITLE9=Διονυσίου Στράτος - Θέλω να πω στον εαυτό μου [Θ. Πολυκανδριώτης-Γ. Πά
TTITLE9=ριος]
TTITLE10=Διονυσίου Στράτος - Αφιλότιμη [Γ. Χατζηνάσιος-Τάσος Οικονόμου]
TTITLE11=Διονυσίου Στράτος - Ο παλιατζής [Α. Ρεπάνης-Δ. Γκούτης]
TTITLE12=Διονυσίου Άγγελος - Ο λαός τραγούδι θέλει [Τ.Σούκας-Γ.Βρούβας/Γ. Παπα
TTITLE12=για/λος]
TTITLE13=Καρράς Βασίλης - Και λέγε, λέγε [Θαν. Πολυκανδριώτης-Γ. Πάριος]
TTITLE14=Παπαδοπούλου Πίτσα - Τα μάζεψα τα πράγματα [Θαν. Πολυκανδριώτης-Γ. Πά
TTITLE14=ριος]
TTITLE15=Γονίδης Σταμάτης - Ένας αητός γκρεμίστηκε [Α. Ρεπάνης-Ε. Παπαγιαννοπο
TTITLE15=ύλου]
TTITLE16=Διονυσίου Άγγλος-Διονυσίου Στέλιος - Εγώ ο ξένος [Τάκης Μουσαφίρης]
TTITLE17=Διονυσίου Άγγλος-Διονυσίου Στέλιος - Ένα λεπτό περιπτερά [Τ. Μουσαφίρ
TTITLE17=ης-Μαριανίνα Κριεζή]
TTITLE18=Ανδρεάτος Γεράσιμος - Χτες το βράδυ στην ταβέρνα [Α. Ρεπάνης-Παν. Καμ
TTITLE18=ηλιέρης]
TTITLE19=Διονυσίου Στέλιος - Του κόσμου το περίγελο [Άκης Πάνου]
TTITLE20=Διονυσίου Στέλιος - Εγώ δεν είμαι ένοχος [Άγγ. Χατζηδάκης-Χρ. Κολοκοτ
TTITLE20=ρώνης]
TTITLE21=Διονυσίου Άγγελος - Ποιος το είπε για τους μάγκες [Τ. Σούκας-Β. Παπαδ
TTITLE21=όπουλος]
TTITLE22=Διονυσίου Στέλιος - Βρέχει φωτιά στη στράτα μου [Μ.Πλέσσας-Λ.Παπαδόπο
TTITLE22=υλος]
TTITLE23=Διονυσίου Άγγελος - Γιατί καλέ γειτόνισσα [Άκης Πάνου]
EXTD=
EXTT0=
EXTT1=
EXTT2=
EXTT3=
EXTT4=
EXTT5=
EXTT6=
EXTT7=
EXTT8=
EXTT9=
EXTT10=
EXTT11=
EXTT12=
EXTT13=
EXTT14=
EXTT15=
EXTT16=
EXTT17=
EXTT18=
EXTT19=
EXTT20=
EXTT21=
EXTT22=
EXTT23=
PLAYORDER=
